<svg width="90" height="90" viewBox="0 0 90 90" fill="none" xmlns="http://www.w3.org/2000/svg">
<g id="Icon">
<g id="bg">
<circle id="Ellipse 117" cx="45" cy="45" r="44.5" fill="white" stroke="#E0DEF7"/>
<circle id="Ellipse 118" opacity="0.1" cx="45" cy="45" r="39.375" fill="#0B6755"/>
<g id="icon">
<g id="Group">
<path id="Vector" d="M59.5954 34.7109H31.2154C28.7444 34.7109 26.7344 36.721 26.7344 39.192V42.9262C26.7344 45.3972 28.7444 47.4073 31.2154 47.4073V45.9136C29.5679 45.9136 28.2281 44.5738 28.2281 42.9262V39.192C28.2281 37.5444 29.5679 36.2046 31.2154 36.2046H59.5954C61.243 36.2046 62.5828 37.5444 62.5828 39.192V42.9262C62.5828 44.5738 61.243 45.9136 59.5954 45.9136V47.4073C62.0664 47.4073 64.0765 45.3972 64.0765 42.9262V39.192C64.0765 36.721 62.0664 34.7109 59.5954 34.7109Z" fill="#0E5952"/>
<path id="Vector_2" d="M63.3295 25H27.4811C25.0101 25 23 27.0101 23 29.4811V53.38C23 55.851 25.0101 57.8611 27.4811 57.8611H31.7852C31.5714 57.3905 31.4141 56.8904 31.3204 56.3674H27.4811C25.8335 56.3674 24.4937 55.0276 24.4937 53.38V30.9747H66.3169V53.38C66.3169 55.0276 64.9771 56.3674 63.3295 56.3674H59.4902C59.3964 56.8904 59.2392 57.3905 59.0254 57.8611H63.3295C65.8005 57.8611 67.8105 55.851 67.8105 53.38V29.4811C67.8105 27.0101 65.8005 25 63.3295 25ZM26.7342 29.4811C25.7532 29.462 25.7533 28.0062 26.7342 27.9874C27.7153 28.0064 27.7151 29.4622 26.7342 29.4811ZM29.7216 29.4811C28.7405 29.462 28.7407 28.0062 29.7216 27.9874C30.7026 28.0064 30.7025 29.4622 29.7216 29.4811ZM32.709 29.4811C31.7279 29.462 31.728 28.0062 32.709 27.9874C33.69 28.0064 33.6899 29.4622 32.709 29.4811Z" fill="#0E5952"/>
<path id="Vector_3" d="M53.2472 40.6875H37.5635C34.8868 40.6875 32.709 42.8653 32.709 45.542V55.2509C32.709 57.9276 34.8868 60.1054 37.5635 60.1054H53.2472C55.9238 60.1054 58.1016 57.9276 58.1016 55.2509V45.542C58.1016 42.8653 55.9238 40.6875 53.2472 40.6875ZM48.6917 46.5127C47.9124 45.9256 48.8046 44.7345 49.5874 45.3181C49.5873 45.3181 52.5747 47.5586 52.5747 47.5586C52.9687 47.8378 52.9692 48.4741 52.5747 48.7532C52.5747 48.7532 49.5873 50.9938 49.5873 50.9938C49.4531 51.0944 49.2963 51.1433 49.1402 51.1433C48.4521 51.1689 48.1133 50.2007 48.6917 49.7991C48.6917 49.7991 50.8819 48.1559 50.8819 48.1559L48.6917 46.5127ZM47.5926 44.6989L44.6052 52.1673C44.2223 53.0741 42.8691 52.5282 43.218 51.613C43.218 51.613 46.2054 44.1446 46.2054 44.1446C46.5848 43.2407 47.9419 43.7801 47.5926 44.6989ZM42.1189 49.7991C42.899 50.3873 42.0044 51.5776 41.2232 50.9937C41.2233 50.9938 38.2359 48.7532 38.2359 48.7532C37.8419 48.4741 37.8414 47.8377 38.2359 47.5586C38.2359 47.5586 41.2233 45.3181 41.2233 45.3181C42.0049 44.7357 42.8995 45.9232 42.1189 46.5127C42.1189 46.5127 39.9287 48.1559 39.9287 48.1559L42.1189 49.7991Z" fill="#0E5952"/>
</g>
<path id="Vector_4" d="M56.4758 62.0259L54.8917 60.441L56.2541 59.0786C57.4686 57.9436 56.89 55.7306 55.2738 55.3371C55.2739 55.3371 45.8092 52.6867 45.8092 52.6867C44.7328 52.3504 43.6301 53.4489 43.9684 54.5276C43.9684 54.5275 46.6188 63.9922 46.6188 63.9922C47.0129 65.607 49.2248 66.1883 50.3603 64.9723C50.3603 64.9724 51.7227 63.61 51.7227 63.61L53.3076 65.1941C53.5986 65.4851 53.9815 65.631 54.3636 65.631C55.1695 65.7164 55.9495 64.6103 56.4758 64.138C57.0586 63.556 57.0585 62.6079 56.4758 62.0259Z" fill="#F2BE22"/>
</g>
</g>
</g>
</svg>
