<svg width="224" height="210" viewBox="0 0 224 210" fill="none" xmlns="http://www.w3.org/2000/svg">
<g id="Group 20092">
<path id="Vector 806" d="M215.211 148.052C203.588 154.177 187.382 154.118 178.465 142.724C171.641 134.002 167.84 120.733 168.598 110.422C168.979 105.247 171.978 96.7265 178.872 99.8376C188.359 104.118 186.329 122.007 178.158 131.021C166.018 144.413 147.879 148.45 130.289 144.344C108.467 139.25 81.4947 123.827 78.6843 100.064C77.3738 88.9834 80.4678 81.1784 87.9063 73.0626C93.828 66.6017 102.144 59.858 111.966 62.014C128.132 65.5623 126.469 83.1941 120.355 94.3728C107.967 117.025 75.651 126.134 52.7749 113.689C32.7094 102.773 16.775 85.5341 3.15051 67.807" stroke="black" stroke-width="3" stroke-linecap="round"/>
</g>
</svg>
