<svg width="150" height="148" viewBox="0 0 150 148" fill="none" xmlns="http://www.w3.org/2000/svg">
<g id="Group">
<g id="Group_2">
<g id="Group_3">
<path id="Vector" d="M27.1179 2.48624C27.4082 6.90588 27.3437 11.3578 26.9243 15.7452C26.8598 16.2936 26.8275 16.842 26.7307 17.3582C26.6984 17.6162 26.6663 17.8743 26.634 18.1324C26.6017 18.5195 26.7308 17.5195 26.634 18.1002C26.6017 18.2615 26.6017 18.455 26.5694 18.6163C26.4081 19.7132 26.2146 20.81 26.0211 21.9068C25.6017 24.1005 25.0533 26.2942 24.4081 28.4234C24.0855 29.4235 23.7628 30.4235 23.408 31.4236C23.2144 31.9075 23.053 32.3914 22.8272 32.8753C22.7949 32.9721 22.6659 33.1334 22.6659 33.2624C22.6659 32.9398 22.8595 32.8431 22.7305 33.0689C22.6014 33.327 22.5046 33.585 22.3756 33.8431C21.6013 35.5529 20.6658 37.1982 19.6335 38.7467C19.4077 39.1015 19.1496 39.4564 18.8916 39.8112C18.7625 40.0048 18.6011 40.1984 18.4721 40.3919C18.4076 40.4564 18.343 40.5532 18.3108 40.6177C18.6334 40.0371 18.4398 40.4564 18.3431 40.5855C17.7624 41.3275 17.1172 42.0695 16.472 42.7792C15.8268 43.4566 15.1816 44.1018 14.4718 44.747C14.1492 45.0374 13.7945 45.3277 13.4396 45.6181C13.2783 45.7471 13.117 45.8762 12.9557 46.0052C12.6976 46.1988 13.4396 45.6181 13.0524 45.9407C12.9234 46.0374 12.8266 46.102 12.6975 46.1988C11.8588 46.8117 10.9877 47.3924 10.0844 47.9086C9.18115 48.4247 8.24573 48.8118 7.31019 49.2957C7.34245 49.2635 7.85848 49.0699 7.50362 49.199C7.37458 49.2635 7.24564 49.2957 7.11659 49.3603C6.85851 49.457 6.60043 49.5538 6.31009 49.6506C5.82619 49.8119 5.34225 49.9732 4.82609 50.1022C3.82603 50.3926 2.7937 50.5861 1.76138 50.7152C1.21295 50.7797 0.567751 51.3604 0.309669 51.812C0.051588 52.2959 -0.0451609 52.8121 0.0193594 53.3605C0.18066 54.5219 1.18069 55.4574 2.40658 55.4574C4.76157 55.4251 7.11653 55.4252 9.47152 55.5865C10.0199 55.6187 10.5361 55.6832 11.0845 55.7478C11.1168 55.7478 11.6975 55.8445 11.3104 55.78C10.891 55.7155 11.4716 55.8123 11.5361 55.8123C11.8265 55.8446 12.1169 55.9091 12.4072 55.9736C13.5686 56.1994 14.6977 56.4897 15.7945 56.8446C15.9881 56.9091 16.2139 57.0059 16.4075 57.0704C16.5042 57.1027 16.6333 57.1672 16.7301 57.1995C16.9236 57.264 17.1172 57.4576 16.601 57.135C16.9882 57.393 17.4721 57.5221 17.8915 57.7479C18.698 58.1673 19.4722 58.6189 20.182 59.1351C20.3755 59.2641 20.569 59.3932 20.7626 59.5545C20.8271 59.619 20.9239 59.6835 20.9885 59.7158C21.3111 59.9416 20.8594 59.619 20.8272 59.5867C21.1498 59.9093 21.5691 60.1997 21.924 60.49C22.6337 61.1352 23.3111 61.7804 23.9563 62.4901C24.2466 62.8127 24.537 63.1353 24.7951 63.4579C24.9241 63.6192 25.0533 63.7805 25.2146 63.9741C25.4081 64.2322 24.8597 63.4902 25.15 63.8773C25.2468 64.0064 25.3112 64.1031 25.408 64.2322C25.9564 64.9742 26.4404 65.7484 26.9243 66.5227C27.4082 67.3292 27.8599 68.1679 28.2793 69.0067C28.4729 69.4261 28.6663 69.8454 28.8599 70.2648C28.8922 70.3616 28.9244 70.4584 28.9889 70.5229C28.7308 69.91 28.8921 70.2648 28.9566 70.4261C29.0534 70.6842 29.1503 70.91 29.2471 71.1681C29.9891 73.1037 30.5374 75.0716 30.9568 77.0717C31.0859 77.6524 31.1826 78.2008 31.2794 78.7815C31.3117 79.0073 31.3439 79.2654 31.4084 79.4912C31.4407 79.6848 31.473 79.8461 31.473 80.0397C31.473 79.9429 31.4407 79.8461 31.4407 79.7493C31.4407 79.8784 31.473 79.9751 31.473 80.1042C31.6021 81.2655 31.7311 82.3947 31.7956 83.556C32.1505 88.879 31.8279 94.2341 31.473 99.5248C31.4085 100.718 32.4408 101.751 33.5699 101.912C34.7635 102.073 35.8603 101.331 36.2152 100.17C38.7637 92.0727 39.0864 83.5237 40.9898 75.2974C41.4091 73.4586 41.893 71.6197 42.5382 69.8132C42.6672 69.4261 42.8286 69.0389 42.9577 68.6841C43.0222 68.4905 43.1512 68.297 43.2157 68.0712C43.2157 68.1034 42.9898 68.6196 43.1511 68.2647C43.1834 68.1679 43.248 68.0389 43.2803 67.9421C43.6351 67.1679 43.99 66.4259 44.3771 65.6839C45.1513 64.1999 46.0545 62.7805 47.0546 61.4578C47.1191 61.3933 47.1837 61.2965 47.2159 61.232C46.8933 61.7159 46.9901 61.5223 47.0869 61.3933C47.2159 61.232 47.345 61.0707 47.4741 60.9094C47.7322 60.5868 48.0224 60.2642 48.3127 59.9416C48.8611 59.3286 49.4419 58.748 50.0226 58.2318C50.3775 57.9092 50.7 57.6189 51.0871 57.3285C51.1516 57.264 51.2162 57.2317 51.313 57.1672C50.7323 57.6189 51.1516 57.2962 51.2484 57.1995C51.442 57.0704 51.6034 56.9414 51.7969 56.8124C52.5066 56.3285 53.2486 55.8768 54.0228 55.4897C54.2164 55.3929 54.4422 55.2961 54.6357 55.1993C54.7325 55.1671 54.7971 55.1348 54.8939 55.1026C55.3456 54.909 54.41 55.2961 54.8293 55.1348C55.2487 54.9735 55.6681 54.8122 56.1197 54.6832C56.5714 54.5542 56.9908 54.4251 57.4424 54.3283C57.636 54.296 57.8618 54.2316 58.0554 54.1993C58.2489 54.167 59.1521 54.038 58.3134 54.1347C58.9586 54.038 59.5716 53.9412 60.0233 53.425C60.3781 53.0379 60.604 52.5863 60.7007 52.0378C60.862 50.941 60.1522 49.6183 58.9586 49.3925C58.023 49.199 57.0876 48.9731 56.152 48.6828C55.7327 48.5537 55.3454 48.3925 54.9261 48.2634C54.7002 48.1666 54.4745 48.0698 54.2487 48.0053C54.9907 48.2957 54.1518 47.9408 53.9583 47.8763C52.2485 47.0698 50.6033 46.102 49.0871 44.9729C49.0226 44.9083 48.9257 44.8438 48.8612 44.8116C48.5386 44.5535 48.9902 44.9083 49.0225 44.9406C48.8612 44.7793 48.6355 44.6503 48.4419 44.489C48.0548 44.1664 47.6998 43.876 47.3449 43.5534C46.6352 42.9082 45.9255 42.2308 45.2803 41.4888C44.6351 40.7791 44.0222 40.0693 43.4093 39.3273C43.3448 39.2305 43.2802 39.1338 43.1834 39.037C43.2156 39.0693 43.5383 39.4886 43.2803 39.166C43.119 38.9725 42.9898 38.7789 42.8285 38.5854C42.5382 38.1982 42.2479 37.7788 41.9899 37.3917C40.9253 35.811 39.9896 34.1335 39.1509 32.4237C38.9573 32.0043 38.7638 31.6172 38.5703 31.1978C38.5057 31.101 38.4735 30.972 38.4412 30.8752C38.2799 30.5203 38.5057 31.0042 38.5057 31.0365C38.4089 30.7461 38.2798 30.4881 38.1831 30.23C37.8282 29.359 37.5056 28.4557 37.183 27.5524C35.828 23.5844 34.828 19.4874 34.0215 15.3581C33.5699 13.0676 33.1506 10.7448 32.7957 8.42212C32.6344 7.32527 32.4731 6.26069 32.3118 5.16385C32.2473 4.61543 32.1504 4.09926 32.0859 3.55084C32.0537 3.35728 31.9246 2.45399 32.0536 3.26049C32.0214 2.97015 31.9892 2.71208 31.9569 2.42174C31.8601 1.74427 31.731 1.19583 31.2471 0.711932C30.8277 0.29255 30.1503 -0.0300356 29.5374 0.00222451C28.9245 0.0344847 28.2469 0.22803 27.8275 0.711932C27.4081 1.22809 27.0211 1.8733 27.1179 2.48624C28.247 10.9707 29.5374 19.5518 32.1505 27.7137C34.6668 35.4884 38.7638 42.9082 45.1836 48.1021C48.829 51.0378 53.0228 53.296 57.636 54.167C57.8619 52.5863 58.0554 51.0055 58.2812 49.4248C56.2811 49.6829 54.4422 50.199 52.5711 51.0055C50.9259 51.7153 49.4096 52.683 47.9901 53.8121C45.2157 55.9736 42.9253 58.7802 41.1188 61.7804C39.2154 64.9097 37.8282 68.3615 36.8927 71.9101C35.7636 76.1039 35.1184 80.4268 34.4731 84.7174C33.7634 89.5564 33.0214 94.3954 31.5374 99.0732C33.1182 99.299 34.699 99.4925 36.2797 99.7184C36.8927 90.1694 37.4411 80.1687 34.2151 70.9746C31.5375 63.2967 26.279 56.1026 18.6334 52.8766C13.504 50.7152 7.89081 50.6507 2.40658 50.7152C2.6324 52.2959 2.82596 53.8767 3.05178 55.4574C11.1813 54.3283 18.1172 49.0699 22.8595 42.6179C28.1179 35.4561 30.4085 26.4556 31.5053 17.7453C32.1505 12.6805 32.2795 7.58334 31.9246 2.51849C31.8278 1.26035 30.86 0.034461 29.5051 0.0989814C28.2792 0.131242 27.0211 1.13131 27.1179 2.48624Z" fill="white"/>
</g>
</g>
<g id="Group_4">
<g id="Group_5">
<path id="Vector_2" d="M97.1228 47.454C97.3809 48.6476 97.6067 49.8413 97.8003 51.0349C97.8971 51.6156 97.9938 52.2285 98.0906 52.8414C98.1229 53.035 98.2841 53.9383 98.155 53.2286C98.2195 53.5835 98.2519 53.9383 98.2842 54.2609C98.5745 56.7127 98.8004 59.1967 98.9294 61.6807C99.1875 66.6811 99.1551 71.7136 98.8002 76.6817C98.7034 77.9076 98.6067 79.1335 98.5099 80.3916C98.4454 80.9401 98.4131 81.5207 98.3486 82.0691C98.3164 82.3272 98.2842 82.5853 98.2519 82.8756C98.2519 83.0047 98.2196 83.1338 98.2196 83.2305C98.1873 83.4241 98.2196 83.3273 98.2519 82.9402C98.2519 83.037 98.2196 83.1338 98.2196 83.2305C97.9293 85.2952 97.4776 87.3275 96.9292 89.3277C96.6389 90.3277 96.3163 91.3278 95.9614 92.2956C95.7678 92.7795 95.6065 93.2634 95.4129 93.7473C95.3806 93.8764 95.3162 93.9732 95.2839 94.1022C95.4775 93.4893 95.3807 93.8441 95.3162 94.0054C95.1871 94.2635 95.0903 94.5538 94.9613 94.8119C94.0903 96.7153 93.0902 98.5218 91.8966 100.264C91.574 100.748 91.2192 101.232 90.8644 101.683C90.7676 101.812 90.5739 101.974 90.9611 101.554C90.8643 101.683 90.7352 101.812 90.6385 101.941C90.4449 102.167 90.2835 102.393 90.09 102.619C89.348 103.49 88.5738 104.296 87.7351 105.103C87.3157 105.49 86.8963 105.877 86.4446 106.264C86.2188 106.458 85.9607 106.619 85.7672 106.813C86.1865 106.393 86.0253 106.619 85.864 106.748C85.735 106.845 85.6059 106.942 85.4446 107.039C84.509 107.716 83.509 108.361 82.4767 108.91C81.5734 109.394 81.0571 110.652 81.3797 111.652C81.5088 112.039 81.7025 112.426 81.9928 112.716C82.3477 113.103 83.1541 113.491 83.7025 113.426C85.864 113.168 88.0254 113.039 90.1869 113.103C91.2514 113.136 92.2837 113.2 93.3483 113.297C93.6064 113.329 93.8967 113.362 94.1548 113.394C94.3484 113.426 95.3162 113.555 94.4774 113.426C95.0258 113.523 95.5743 113.587 96.1227 113.684C98.2196 114.039 100.316 114.555 102.349 115.2C103.381 115.523 104.413 115.878 105.414 116.297C105.639 116.394 105.833 116.458 106.059 116.555C106.188 116.62 106.317 116.652 106.446 116.717C105.768 116.458 106.22 116.62 106.381 116.684C106.898 116.91 107.381 117.136 107.898 117.362C109.866 118.297 111.769 119.33 113.575 120.491C114.479 121.072 115.35 121.652 116.189 122.298C116.414 122.459 116.64 122.62 116.866 122.781C116.963 122.878 117.092 122.943 117.189 123.04C116.672 122.652 116.898 122.814 117.027 122.911C117.511 123.298 117.963 123.653 118.414 124.04C120.028 125.395 121.576 126.879 122.995 128.427C123.737 129.234 124.447 130.072 125.157 130.943C125.286 131.137 125.447 131.298 125.576 131.492C125.06 130.879 125.673 131.621 125.77 131.782C126.092 132.234 126.415 132.685 126.738 133.137C128.092 135.105 129.318 137.17 130.351 139.299C130.609 139.847 130.867 140.396 131.093 140.912C131.286 141.363 130.867 140.363 131.06 140.847C131.125 141.008 131.189 141.202 131.254 141.363C131.351 141.621 131.448 141.88 131.544 142.138C131.996 143.299 132.383 144.493 132.706 145.686C133.061 146.912 134.448 147.783 135.674 147.364C136.254 147.17 136.835 146.815 137.125 146.267C137.448 145.654 137.48 145.073 137.383 144.396C137.383 144.364 137.287 143.751 137.351 144.138C137.416 144.525 137.319 143.944 137.319 143.912C137.287 143.686 137.254 143.46 137.222 143.234C137.158 142.718 137.093 142.202 137.061 141.686C136.996 140.879 136.932 140.073 136.9 139.266C136.867 138.008 136.899 136.718 136.867 135.46C136.867 133.879 136.77 132.33 136.609 130.75C136.48 129.556 136.319 128.362 136.158 127.169C136.061 126.459 135.964 125.749 135.867 125.007C135.835 124.878 135.835 124.749 135.803 124.62C135.706 124.007 135.867 125.007 135.803 124.62C135.77 124.265 135.706 123.943 135.674 123.588C135.383 121.298 135.125 118.975 135.061 116.652C135.029 115.458 135.028 114.297 135.125 113.103C135.157 112.555 135.19 111.974 135.286 111.426C135.157 112.103 135.351 111.103 135.351 110.974C135.416 110.652 135.448 110.361 135.512 110.039C135.706 109.039 135.996 108.071 136.319 107.135C136.448 106.716 136.609 106.297 136.77 105.877C136.835 105.684 136.9 105.49 136.996 105.329C137.029 105.2 137.093 105.103 137.125 104.974C137.351 104.458 137.029 105.232 137.125 105.006C137.9 103.296 138.771 101.651 139.803 100.103C140.093 99.6832 140.513 99.2316 140.771 98.7799C140.738 98.8122 140.416 99.2316 140.674 98.909C140.771 98.7799 140.868 98.6832 140.964 98.5541C141.126 98.3606 141.287 98.167 141.448 97.9734C142.126 97.1992 142.835 96.4572 143.61 95.7475C143.997 95.3926 144.416 95.0378 144.836 94.6829C145.158 94.4248 144.739 94.7797 144.707 94.7797C144.836 94.7151 144.932 94.5861 145.061 94.5216C145.287 94.3603 145.513 94.199 145.707 94.0377C146.578 93.4248 147.481 92.9086 148.449 92.4247C149.352 91.973 149.868 90.6504 149.546 89.6826C149.191 88.618 148.32 87.9728 147.223 87.9083C146.094 87.8437 144.965 87.747 143.835 87.6179C143.577 87.5857 143.319 87.5534 143.061 87.5211C142.932 87.5211 142.803 87.4566 142.674 87.4566C143.319 87.4244 142.9 87.4889 142.706 87.4566C142.126 87.3598 141.545 87.2953 140.997 87.1985C138.803 86.8114 136.641 86.3275 134.545 85.7146C133.48 85.392 132.448 85.0694 131.415 84.6822C130.931 84.4887 130.447 84.3274 129.931 84.1338C129.867 84.1015 129.189 83.8435 129.189 83.8435C129.286 83.8757 129.383 83.9402 129.48 83.9725C129.383 83.9402 129.286 83.8757 129.189 83.8435C129.06 83.7789 128.899 83.7144 128.77 83.6499C126.738 82.7466 124.802 81.7143 122.931 80.5207C121.995 79.9077 121.06 79.2948 120.189 78.6173C120.092 78.5528 120.027 78.4883 119.931 78.4238C120.027 78.5205 120.479 78.8109 119.931 78.4238C119.737 78.2625 119.511 78.1012 119.318 77.9399C118.866 77.585 118.447 77.1979 118.027 76.8108C117.221 76.0688 116.414 75.2945 115.672 74.488C114.898 73.6492 114.221 72.746 113.479 71.9072C113.93 72.4234 113.382 71.7782 113.285 71.6169C113.124 71.3911 112.963 71.1975 112.801 70.9717C112.446 70.4878 112.124 70.0039 111.801 69.52C111.156 68.5522 110.575 67.5521 109.995 66.552C108.865 64.5519 107.865 62.4872 106.93 60.3581C106.898 60.2613 106.833 60.1645 106.801 60.0677C106.769 59.9709 106.704 59.8742 106.672 59.7774C106.801 60.1 106.833 60.1322 106.736 59.9064C106.607 59.6161 106.478 59.2935 106.349 59.0031C106.123 58.4224 105.898 57.8418 105.672 57.2611C105.22 56.0675 104.768 54.8416 104.349 53.6479C103.478 51.1639 102.671 48.6799 101.865 46.1959C101.478 45.0022 100.155 44.099 98.8971 44.5183C97.6067 44.8732 96.7034 46.1636 97.1228 47.454C100.026 56.5191 103.059 65.8745 108.704 73.6492C111.575 77.6172 115.027 81.0368 119.092 83.8435C122.931 86.4888 127.222 88.4889 131.641 89.9406C136.674 91.5859 141.932 92.4892 147.223 92.7795C146.803 91.2633 146.416 89.7793 145.997 88.2631C138.674 91.9085 133.577 99.1671 131.351 106.942C129.996 111.684 130.06 116.62 130.609 121.459C130.77 122.814 130.931 124.136 131.125 125.491C131.157 125.814 131.222 126.104 131.254 126.427C131.286 126.556 131.286 126.685 131.319 126.814C131.415 127.427 131.254 126.427 131.319 126.846C131.415 127.459 131.48 128.104 131.577 128.717C131.802 130.621 132.028 132.524 132.06 134.427C132.093 135.879 132.061 137.331 132.093 138.783C132.157 141.073 132.415 143.363 132.738 145.654C134.286 145.235 135.835 144.783 137.416 144.364C134.932 135.589 129.77 127.653 122.995 121.62C116.221 115.555 107.833 111.136 98.9294 109.297C93.9613 108.264 88.7997 107.942 83.7671 108.587C84.1865 110.103 84.5736 111.587 84.9929 113.103C92.9289 108.748 98.2841 100.909 101.091 92.4569C102.542 88.0696 103.188 83.5209 103.543 78.9077C103.962 73.8106 104.091 68.7135 103.897 63.6163C103.672 57.7773 103.059 51.9382 101.865 46.2281C101.607 45.0022 100.091 44.1635 98.8971 44.5506C97.5099 44.9055 96.8647 46.1313 97.1228 47.454Z" fill="white"/>
</g>
</g>
</g>
</svg>
