<svg width="124" height="124" viewBox="0 0 124 124" fill="none" xmlns="http://www.w3.org/2000/svg">
<g id="Icon">
<circle id="Ellipse 117" cx="62" cy="62" r="61.5" fill="white" stroke="#E0DEF7"/>
<g id="Ellipse 118">
<circle cx="62" cy="62" r="54.25" fill="#000711"/>
<circle cx="62" cy="62" r="54.25" fill="black" fill-opacity="0.2"/>
</g>
<g id="icon">
<g id="Group">
<path id="Vector" d="M85.6157 38.7384C85.4926 36.803 83.9413 35.2517 82.0067 35.1295C78.3834 34.9009 75.0619 34.9765 72.038 35.3443C65.8596 36.0736 60.8029 38.1442 57.219 41.4274C47.2584 39.354 39.3376 48.5517 42.6399 58.2095C42.8918 58.9384 43.5579 59.4424 44.3319 59.4874C45.078 59.5495 45.7758 59.1409 46.1049 58.4614C46.961 56.6675 48.8484 55.7313 50.7497 56.1167C50.7046 57.4187 50.7782 58.4057 50.8304 58.9051L48.9227 60.8129C47.519 62.2165 47.519 64.5009 48.9227 65.9045L54.8406 71.8224C56.2449 73.2254 58.5279 73.225 59.9323 71.8224L61.8396 69.9144C62.3223 69.9786 63.7677 70.0404 64.6329 69.994C64.9995 71.8984 64.0781 73.7904 62.2785 74.644C61.6035 74.977 61.2074 75.652 61.2524 76.417C61.3064 77.1911 61.8104 77.8571 62.5395 78.1091C63.9705 78.6041 65.4736 78.8381 66.9586 78.8381C75.1344 79.0185 81.04 71.4036 79.3212 63.5213C84.8457 57.707 86.2749 47.4721 85.6157 38.7384ZM76.9335 63.3829C71.1862 68.6846 63.5851 68.2715 62.0329 68.123L52.6213 58.7113C51.7429 48.8231 57.5598 38.8567 71.6871 37.2037L83.5415 49.059C82.6897 55.3044 80.485 60.1069 76.9335 63.3829Z" fill="white"/>
<path id="Vector_2" d="M32.9008 75.4958C33.3982 75.4958 33.8008 75.0933 33.8008 74.5958C33.7726 72.8287 36.1986 72.119 37.117 73.6369C37.3737 74.0429 37.9037 74.1757 38.3221 73.9383C38.606 73.7775 38.9013 73.6958 39.201 73.6958C40.1933 73.6958 41.001 74.5035 41.001 75.4958C41.001 75.9933 41.4036 76.3958 41.9011 76.3958C43.0566 76.3616 42.8697 74.943 42.5518 74.2048C45.2562 73.9697 47.899 72.7053 49.7166 70.7003C50.0506 70.3312 50.0224 69.7625 49.6542 69.4285C49.2859 69.0954 48.7155 69.1218 48.3823 69.4909C46.5685 71.4945 43.7734 72.6102 41.0698 72.4337C40.2418 71.9084 39.1108 71.7379 38.1489 72.0592C35.9903 69.7811 31.9354 71.4471 32.0008 74.5959C32.0007 75.0933 32.4033 75.4958 32.9008 75.4958Z" fill="white"/>
<path id="Vector_3" d="M40.101 77.2979C38.9496 77.2979 37.872 77.7312 37.0458 78.5064C34.7481 77.4306 31.9463 79.2581 32.0008 81.7981C31.946 84.3396 34.7526 86.1679 37.0502 85.0879C37.1619 85.1907 37.2788 85.2883 37.4009 85.3797C37.4009 87.3837 39.0155 88.9983 41.001 88.9983C43.6517 89.0624 45.4847 86.0098 44.1705 83.708C45.6057 80.8269 43.3227 77.2278 40.101 77.2979Z" fill="white"/>
<path id="Vector_4" d="M49.8311 71.2483C48.0854 72.9147 46.9971 75.5366 46.8739 78.2475C45.4277 77.8073 44.9015 79.8312 46.4024 79.9999C47.3947 79.9999 48.2025 80.8076 48.2025 81.7999C48.2025 82.0996 48.1207 82.395 47.9599 82.6789C47.7226 83.0964 47.8553 83.6272 48.2614 83.8839C49.779 84.8009 49.0693 87.2299 47.3024 87.2001C46.805 87.2001 46.4024 87.6027 46.4024 88.1001C46.4024 88.5976 46.805 89.0002 47.3024 89.0002C50.4513 89.0651 52.1172 85.0102 49.8391 82.852C50.3032 81.4739 49.7519 79.8668 48.6578 79.0165C48.5898 76.5539 49.5336 74.0206 51.074 72.5509C51.9217 71.7342 50.6858 70.439 49.8311 71.2483Z" fill="white"/>
<path id="Vector_5" d="M77.0023 48.4998C76.8186 54.4482 68.1847 54.4468 68.002 48.4997C68.1856 42.5515 76.8195 42.5528 77.0023 48.4998Z" fill="white"/>
</g>
<path id="Vector_6" d="M72.6257 48.119C69.2066 44.6999 63.6447 44.6999 60.2257 48.119C54.6993 53.5688 58.7528 63.1717 66.4258 63.0828C74.0984 63.1715 78.1526 53.5677 72.6257 48.119Z" fill="#F2BE22"/>
</g>
</g>
</svg>
