<svg width="218" height="40" viewBox="0 0 218 40" fill="none" xmlns="http://www.w3.org/2000/svg">
<g id="Social Icon">
<g id="Icon">
<circle id="Ellipse 2019" cx="20.0062" cy="20" r="20" fill="#15131D"/>
<g id="Icon_2">
<path id="Vector" d="M27.596 29.2453C27.1993 29.2108 26.8026 29.1821 26.4059 29.1362C23.8417 28.8491 21.4616 28.028 19.2711 26.6614C16.9714 25.2259 15.1087 23.354 13.6944 21.0514C12.5503 19.1967 11.7971 17.1985 11.4234 15.051C11.2624 14.1265 11.1819 13.1963 11.1704 12.2546C11.1589 11.3072 11.7856 10.6641 12.7342 10.6641C13.8151 10.6641 14.8902 10.6641 15.971 10.6641C16.8909 10.6641 17.5061 11.2497 17.5291 12.1685C17.5578 13.2709 17.7131 14.3447 18.0465 15.3955C18.2305 15.9812 18.1098 16.4865 17.7188 16.9631C17.1956 17.6062 16.7127 18.278 16.2183 18.9441C16.1895 18.9843 16.1838 19.0704 16.2068 19.1163C17.2876 21.1777 18.8169 22.8085 20.8521 23.9511C21.0361 24.0545 21.2258 24.2382 21.4041 24.2267C21.5765 24.2153 21.7375 24.0085 21.9042 23.888C22.4849 23.4516 23.0598 23.0037 23.6405 22.573C24.0027 22.3032 24.4109 22.2343 24.8479 22.3376C25.4055 22.4697 25.9575 22.6477 26.5209 22.7396C27.0843 22.8314 27.665 22.8601 28.2341 22.8946C28.8608 22.929 29.3437 23.1702 29.6255 23.7444C29.6887 23.8765 29.7232 24.0258 29.7749 24.1693C29.7749 25.4383 29.7749 26.7073 29.7749 27.982C29.6715 28.2117 29.5967 28.4586 29.4645 28.6653C29.246 29.0099 28.8838 29.1534 28.5044 29.251C28.1996 29.2453 27.8949 29.2453 27.596 29.2453Z" fill="white"/>
</g>
</g>
<g id="Icon_3">
<circle id="Ellipse 2020" cx="198.006" cy="20" r="20" fill="#15131D"/>
<g id="Icon_4">
<path id="Vector_2" d="M207.051 24.5871C206.997 24.7524 206.948 24.9128 206.899 25.0631C205 23.1341 203.11 21.2201 201.215 19.3011C203.12 17.3721 205.009 15.4581 206.909 13.5391C206.948 13.6593 207.002 13.8247 207.051 13.99C207.051 17.5224 207.051 21.0547 207.051 24.5871Z" fill="white"/>
<path id="Vector_3" d="M189.19 12.6645C189.411 12.6144 189.602 12.5693 189.789 12.5343C189.848 12.5192 189.911 12.5242 189.97 12.5242C195.08 12.5242 200.195 12.5242 205.304 12.5293C205.555 12.5293 205.805 12.5944 206.055 12.6295C206.06 12.6545 206.06 12.6746 206.065 12.6996C206.021 12.7447 205.977 12.7948 205.932 12.8399C203.346 15.4907 200.764 18.1466 198.177 20.7974C197.819 21.1682 197.47 21.1682 197.112 20.8024C194.525 18.1466 191.934 15.4907 189.347 12.8349C189.303 12.7898 189.263 12.7447 189.19 12.6645Z" fill="white"/>
<path id="Vector_4" d="M200.397 20.1428C202.291 22.062 204.176 23.9712 206.1 25.9205C205.874 25.9706 205.693 26.0157 205.501 26.0508C205.428 26.0658 205.354 26.0558 205.281 26.0558C200.186 26.0558 195.096 26.0558 190.001 26.0558C189.731 26.0558 189.47 26.0307 189.205 25.8904C191.105 23.9662 192.99 22.057 194.889 20.1328C194.909 20.1478 194.953 20.1929 195.002 20.238C195.454 20.6991 195.901 21.1601 196.352 21.6211C197.113 22.3978 198.168 22.3978 198.929 21.6211C199.43 21.12 199.925 20.6189 200.397 20.1428Z" fill="white"/>
<path id="Vector_5" d="M188.365 25.0697C188.326 24.8543 188.242 24.6238 188.242 24.3933C188.237 20.9962 188.237 17.5991 188.242 14.197C188.242 13.9666 188.321 13.7361 188.365 13.5156C190.279 15.4547 192.169 17.3737 194.069 19.2977C192.174 21.2117 190.284 23.1257 188.365 25.0697Z" fill="white"/>
</g>
</g>
<g id="Icon_5">
<circle id="Ellipse 2017" cx="139.006" cy="20" r="20" fill="#15131D"/>
<g id="Icon_6">
<path id="Vector_6" d="M139.612 31.2337C139.453 31.2337 139.295 31.2337 139.136 31.2337C138.633 31.1066 138.271 30.8344 138.017 30.3927C136.053 26.9379 134.07 23.4891 132.093 20.0343C131.171 18.4249 130.834 16.7187 131.088 14.8975C131.533 11.7755 134 9.07698 137.197 8.27832C137.705 8.15126 138.239 8.09076 138.754 8C139.167 8 139.581 8 139.994 8C140.337 8.0484 140.687 8.08471 141.024 8.15126C144.818 8.87126 147.666 12.1325 147.749 15.8232C147.78 17.3721 147.374 18.8061 146.598 20.1614C144.666 23.5133 142.74 26.8774 140.826 30.2414C140.547 30.7315 140.197 31.1006 139.612 31.2337ZM139.384 11.9933C137.502 11.9933 135.957 13.4514 135.951 15.2424C135.945 17.0515 137.477 18.5278 139.371 18.5278C141.252 18.5278 142.797 17.0696 142.803 15.2787C142.81 13.4696 141.271 11.9933 139.384 11.9933Z" fill="white"/>
</g>
</g>
<g id="Icon_7">
<circle id="Ellipse 2018" cx="80.0062" cy="20" r="20" fill="#15131D"/>
<path id="Vector_7" d="M89.4785 13.8526C88.7991 14.1667 88.0682 14.3791 87.3017 14.474C88.0843 13.9852 88.6849 13.2118 88.9684 12.2887C88.2361 12.7416 87.4246 13.0701 86.5618 13.2472C85.8704 12.4797 84.8855 12 83.7948 12C81.7022 12 80.005 13.7692 80.005 15.9507C80.005 16.2603 80.0386 16.5617 80.1036 16.851C76.9539 16.6863 74.1613 15.1136 72.2919 12.7227C71.9658 13.3061 71.7787 13.9852 71.7787 14.7091C71.7787 16.0794 72.4482 17.2891 73.4646 17.9974C72.8436 17.9771 72.2589 17.7994 71.7481 17.5028C71.7479 17.5195 71.7479 17.5363 71.7479 17.5528C71.7479 19.467 73.0547 21.0636 74.7881 21.4263C74.4705 21.5171 74.135 21.5651 73.7899 21.5651C73.5451 21.5651 73.308 21.5406 73.0768 21.4947C73.559 23.0638 74.9583 24.2061 76.6171 24.2382C75.3198 25.298 73.6859 25.9294 71.9098 25.9294C71.6046 25.9294 71.3021 25.9108 71.0062 25.874C72.6825 26.9953 74.6751 27.6491 76.8152 27.6491C83.786 27.6491 87.5982 21.6293 87.5982 16.4082C87.5982 16.237 87.5945 16.0664 87.5872 15.8973C88.3282 15.3405 88.9706 14.6449 89.4785 13.8526Z" fill="#FED800"/>
</g>
</g>
</svg>
