<svg width="123" height="123" viewBox="0 0 123 123" fill="none" xmlns="http://www.w3.org/2000/svg">
<g id="Icon" opacity="0.9" filter="url(#filter0_d_1_675)">
<circle id="Ellipse 1612" cx="61.5" cy="57.5" r="30.5" fill="white"/>
<g id="icon">
<g id="Group">
<g id="Vector">
<path d="M49.4838 48.374C49.2167 48.374 49.0002 48.1577 49.0002 47.8905C49.0002 45.2242 51.1694 43.0547 53.836 43.0547C54.103 43.0547 54.3195 43.271 54.3195 43.5383C54.3195 43.8056 54.103 44.0218 53.836 44.0218C51.7028 44.0218 49.9673 45.7573 49.9673 47.8905C49.9673 48.1577 49.7508 48.374 49.4838 48.374Z" fill="#000711"/>
<path d="M49.4838 48.374C49.2167 48.374 49.0002 48.1577 49.0002 47.8905C49.0002 45.2242 51.1694 43.0547 53.836 43.0547C54.103 43.0547 54.3195 43.271 54.3195 43.5383C54.3195 43.8056 54.103 44.0218 53.836 44.0218C51.7028 44.0218 49.9673 45.7573 49.9673 47.8905C49.9673 48.1577 49.7508 48.374 49.4838 48.374Z" fill="black" fill-opacity="0.2"/>
</g>
<g id="Vector_2">
<path d="M51.4174 48.3772C51.1503 48.3772 50.9338 48.1609 50.9338 47.8937C50.9338 46.2937 52.2353 44.9922 53.8352 44.9922C54.1023 44.9922 54.3188 45.2085 54.3188 45.4758C54.3188 45.7431 54.1023 45.9593 53.8352 45.9593C52.7687 45.9593 51.9009 46.8269 51.9009 47.8937C51.9009 48.1609 51.6844 48.3772 51.4174 48.3772Z" fill="#000711"/>
<path d="M51.4174 48.3772C51.1503 48.3772 50.9338 48.1609 50.9338 47.8937C50.9338 46.2937 52.2353 44.9922 53.8352 44.9922C54.1023 44.9922 54.3188 45.2085 54.3188 45.4758C54.3188 45.7431 54.1023 45.9593 53.8352 45.9593C52.7687 45.9593 51.9009 46.8269 51.9009 47.8937C51.9009 48.1609 51.6844 48.3772 51.4174 48.3772Z" fill="black" fill-opacity="0.2"/>
</g>
<g id="Vector_3">
<path d="M69.9592 45.8916C59.2936 36.8908 45.342 50.8146 54.1905 61.5233C52.0647 69.0825 52.2722 69.2828 52.5126 69.5132C52.6413 69.6374 52.8481 69.6823 53.0184 69.6289C58.63 67.8037 65.1132 71.95 65.1782 71.9925C65.483 72.2043 65.9376 71.9589 65.9252 71.5868C65.9253 71.5868 65.9253 68.2018 65.9253 68.2018H67.376C68.4425 68.2018 69.3103 67.3343 69.3103 66.2675V64.8168H71.7282C72.7947 64.8168 73.6625 63.9492 73.6625 62.8824V54.1781C73.6625 51.0202 72.3126 48.0002 69.9592 45.8916ZM72.6953 62.8824C72.6953 63.4156 72.2616 63.8496 71.7282 63.8496H68.8267C68.5597 63.8496 68.3431 64.0659 68.3431 64.3332V66.2675C68.3431 66.8006 67.9094 67.2346 67.376 67.2346H65.6678C64.3395 67.1708 63.0646 66.3116 62.4944 65.0949C62.3815 64.8541 62.0935 64.7492 61.8514 64.8626C61.6097 64.9759 61.5055 65.264 61.6189 65.5058C62.2413 66.8337 63.5333 67.8213 64.9581 68.114V70.7368C63.019 69.5144 57.3074 67.3382 53.3912 68.5163C53.6384 67.2616 54.4233 64.2609 55.1938 61.529C55.2396 61.367 55.1978 61.1932 55.0835 61.0695C53.0654 58.8863 52.1081 55.9268 52.4573 52.9488C54.4077 40.4195 72.2873 41.4387 72.6953 54.1781C72.6953 54.1781 72.6953 62.8824 72.6953 62.8824Z" fill="#000711"/>
<path d="M69.9592 45.8916C59.2936 36.8908 45.342 50.8146 54.1905 61.5233C52.0647 69.0825 52.2722 69.2828 52.5126 69.5132C52.6413 69.6374 52.8481 69.6823 53.0184 69.6289C58.63 67.8037 65.1132 71.95 65.1782 71.9925C65.483 72.2043 65.9376 71.9589 65.9252 71.5868C65.9253 71.5868 65.9253 68.2018 65.9253 68.2018H67.376C68.4425 68.2018 69.3103 67.3343 69.3103 66.2675V64.8168H71.7282C72.7947 64.8168 73.6625 63.9492 73.6625 62.8824V54.1781C73.6625 51.0202 72.3126 48.0002 69.9592 45.8916ZM72.6953 62.8824C72.6953 63.4156 72.2616 63.8496 71.7282 63.8496H68.8267C68.5597 63.8496 68.3431 64.0659 68.3431 64.3332V66.2675C68.3431 66.8006 67.9094 67.2346 67.376 67.2346H65.6678C64.3395 67.1708 63.0646 66.3116 62.4944 65.0949C62.3815 64.8541 62.0935 64.7492 61.8514 64.8626C61.6097 64.9759 61.5055 65.264 61.6189 65.5058C62.2413 66.8337 63.5333 67.8213 64.9581 68.114V70.7368C63.019 69.5144 57.3074 67.3382 53.3912 68.5163C53.6384 67.2616 54.4233 64.2609 55.1938 61.529C55.2396 61.367 55.1978 61.1932 55.0835 61.0695C53.0654 58.8863 52.1081 55.9268 52.4573 52.9488C54.4077 40.4195 72.2873 41.4387 72.6953 54.1781C72.6953 54.1781 72.6953 62.8824 72.6953 62.8824Z" fill="black" fill-opacity="0.2"/>
</g>
<g id="Vector_4">
<path d="M61.0887 44.5078C59.4639 44.5231 59.0923 46.779 60.6051 47.3201V49.3436C60.6051 49.6109 60.8216 49.8272 61.0887 49.8272C61.3557 49.8272 61.5723 49.6109 61.5723 49.3436V47.3202C63.086 46.7784 62.7124 44.5227 61.0887 44.5078Z" fill="#000711"/>
<path d="M61.0887 44.5078C59.4639 44.5231 59.0923 46.779 60.6051 47.3201V49.3436C60.6051 49.6109 60.8216 49.8272 61.0887 49.8272C61.3557 49.8272 61.5723 49.6109 61.5723 49.3436V47.3202C63.086 46.7784 62.7124 44.5227 61.0887 44.5078Z" fill="black" fill-opacity="0.2"/>
</g>
<g id="Vector_5">
<path d="M64.4754 44.5078C62.8506 44.5231 62.479 46.779 63.9918 47.3201V49.3436C63.9918 49.6109 64.2083 49.8272 64.4754 49.8272C64.7425 49.8272 64.959 49.6109 64.959 49.3436V47.3202C66.4727 46.7784 66.0992 44.5227 64.4754 44.5078Z" fill="#000711"/>
<path d="M64.4754 44.5078C62.8506 44.5231 62.479 46.779 63.9918 47.3201V49.3436C63.9918 49.6109 64.2083 49.8272 64.4754 49.8272C64.7425 49.8272 64.959 49.6109 64.959 49.3436V47.3202C66.4727 46.7784 66.0992 44.5227 64.4754 44.5078Z" fill="black" fill-opacity="0.2"/>
</g>
<g id="Vector_6">
<path d="M64.959 60.0695V58.0461C64.959 57.7788 64.7424 57.5625 64.4754 57.5625C64.2083 57.5625 63.9918 57.7788 63.9918 58.0461V60.0695C62.4785 60.611 62.8512 62.8669 64.4754 62.8818C66.0997 62.8668 66.4722 60.6107 64.959 60.0695Z" fill="#000711"/>
<path d="M64.959 60.0695V58.0461C64.959 57.7788 64.7424 57.5625 64.4754 57.5625C64.2083 57.5625 63.9918 57.7788 63.9918 58.0461V60.0695C62.4785 60.611 62.8512 62.8669 64.4754 62.8818C66.0997 62.8668 66.4722 60.6107 64.959 60.0695Z" fill="black" fill-opacity="0.2"/>
</g>
<g id="Vector_7">
<path d="M61.5722 60.0695V58.0461C61.5722 57.7788 61.3557 57.5625 61.0887 57.5625C60.8216 57.5625 60.6051 57.7788 60.6051 58.0461V60.0695C59.0918 60.611 59.4645 62.8669 61.0887 62.8818C62.713 62.8668 63.0854 60.6107 61.5722 60.0695Z" fill="#000711"/>
<path d="M61.5722 60.0695V58.0461C61.5722 57.7788 61.3557 57.5625 61.0887 57.5625C60.8216 57.5625 60.6051 57.7788 60.6051 58.0461V60.0695C59.0918 60.611 59.4645 62.8669 61.0887 62.8818C62.713 62.8668 63.0854 60.6107 61.5722 60.0695Z" fill="black" fill-opacity="0.2"/>
</g>
<g id="Vector_8">
<path d="M67.3773 52.7283H68.9171C69.4587 54.2416 71.7145 53.8689 71.7295 52.2447C71.7144 50.6204 69.4584 50.248 68.9171 51.7612H67.3773C66.7417 51.7717 66.7417 52.7178 67.3773 52.7283Z" fill="#000711"/>
<path d="M67.3773 52.7283H68.9171C69.4587 54.2416 71.7145 53.8689 71.7295 52.2447C71.7144 50.6204 69.4584 50.248 68.9171 51.7612H67.3773C66.7417 51.7717 66.7417 52.7178 67.3773 52.7283Z" fill="black" fill-opacity="0.2"/>
</g>
<g id="Vector_9">
<path d="M70.2778 54.1797C69.6482 54.1797 69.1164 54.5852 68.9162 55.1468H67.3763C67.1093 55.1468 66.8928 55.3631 66.8928 55.6304C66.8928 55.8977 67.1093 56.114 67.3763 56.114H68.9162C69.4579 57.6275 71.7136 57.2544 71.7285 55.6304C71.7285 54.8304 71.0778 54.1797 70.2778 54.1797Z" fill="#000711"/>
<path d="M70.2778 54.1797C69.6482 54.1797 69.1164 54.5852 68.9162 55.1468H67.3763C67.1093 55.1468 66.8928 55.3631 66.8928 55.6304C66.8928 55.8977 67.1093 56.114 67.3763 56.114H68.9162C69.4579 57.6275 71.7136 57.2544 71.7285 55.6304C71.7285 54.8304 71.0778 54.1797 70.2778 54.1797Z" fill="black" fill-opacity="0.2"/>
</g>
<g id="Vector_10">
<path d="M57.7059 51.7612H56.1661C55.6245 50.2479 53.3686 50.6206 53.3537 52.2448C53.3688 53.869 55.6248 54.2415 56.1661 52.7283H57.7059C58.3415 52.7177 58.3415 51.7717 57.7059 51.7612Z" fill="#000711"/>
<path d="M57.7059 51.7612H56.1661C55.6245 50.2479 53.3686 50.6206 53.3537 52.2448C53.3688 53.869 55.6248 54.2415 56.1661 52.7283H57.7059C58.3415 52.7177 58.3415 51.7717 57.7059 51.7612Z" fill="black" fill-opacity="0.2"/>
</g>
<g id="Vector_11">
<path d="M57.7059 55.144H56.1661C55.6245 53.6307 53.3686 54.0034 53.3537 55.6276C53.3688 57.2519 55.6248 57.6243 56.1661 56.1111H57.7059C58.3415 56.1006 58.3415 55.1545 57.7059 55.144Z" fill="#000711"/>
<path d="M57.7059 55.144H56.1661C55.6245 53.6307 53.3686 54.0034 53.3537 55.6276C53.3688 57.2519 55.6248 57.6243 56.1661 56.1111H57.7059C58.3415 56.1006 58.3415 55.1545 57.7059 55.144Z" fill="black" fill-opacity="0.2"/>
</g>
</g>
<path id="Vector_12" d="M65.9253 48.8594H59.1552C58.0869 48.8594 57.2209 49.7254 57.2209 50.7937V56.5966C57.2209 57.6649 58.0869 58.5309 59.1552 58.5309H65.9253C66.9936 58.5309 67.8596 57.6649 67.8596 56.5966V50.7937C67.8596 49.7254 66.9936 48.8594 65.9253 48.8594Z" fill="#04091E"/>
<path id="Vector_13" d="M63.991 51.2734H61.0896C60.2884 51.2734 59.6389 51.923 59.6389 52.7242V54.6585C59.6389 55.4597 60.2884 56.1092 61.0896 56.1092H63.991C64.7923 56.1092 65.4418 55.4597 65.4418 54.6585V52.7242C65.4418 51.923 64.7923 51.2734 63.991 51.2734Z" fill="#F9DA69"/>
</g>
</g>
<defs>
<filter id="filter0_d_1_675" x="0" y="0" width="123" height="123" filterUnits="userSpaceOnUse" color-interpolation-filters="sRGB">
<feFlood flood-opacity="0" result="BackgroundImageFix"/>
<feColorMatrix in="SourceAlpha" type="matrix" values="0 0 0 0 0 0 0 0 0 0 0 0 0 0 0 0 0 0 127 0" result="hardAlpha"/>
<feOffset dy="4"/>
<feGaussianBlur stdDeviation="15.5"/>
<feComposite in2="hardAlpha" operator="out"/>
<feColorMatrix type="matrix" values="0 0 0 0 0 0 0 0 0 0 0 0 0 0 0 0 0 0 0.18 0"/>
<feBlend mode="normal" in2="BackgroundImageFix" result="effect1_dropShadow_1_675"/>
<feBlend mode="normal" in="SourceGraphic" in2="effect1_dropShadow_1_675" result="shape"/>
</filter>
</defs>
</svg>
